<svg width="636" height="273" viewBox="0 0 636 273" fill="none" xmlns="http://www.w3.org/2000/svg">
<path d="M119.718 148.207L128.388 173.668C133.079 187.436 137.267 198.447 137.813 198.447C137.822 198.447 137.83 198.443 137.837 198.437C138.437 197.907 155.407 148.626 155.407 148.626H188.297L148.617 264.245H125.757C125.757 264.245 101.357 193.774 101.457 193.506L75.9869 263.357H53.3569L14.1769 148.207L46.9069 148.228C46.9069 148.228 64.8359 199.049 65.0749 199.049L65.0769 199.047L82.9669 148.206H119.718M3.00293 140.2L6.60393 150.784L45.7839 265.933L47.6289 271.357H53.3579H75.9879H81.5859L83.5039 266.097L101.189 217.597C102.713 222.031 104.36 226.81 106.007 231.585C112.096 249.24 118.198 266.862 118.198 266.862L120.062 272.245H125.758H148.618H154.33L156.184 266.842L195.864 151.224L199.501 140.626H188.297H155.407H149.701L147.843 146.022C144.869 154.657 140.922 166.053 137.547 175.698C137.038 174.235 136.508 172.697 135.96 171.087L127.291 145.627L125.445 140.206H119.718H82.9679H77.3019L75.4209 145.551L64.9679 175.257C61.5149 165.551 57.5119 154.24 54.4519 145.566L52.5699 140.232L46.9129 140.228L14.1829 140.207L3.00293 140.2Z" fill="#FFE81F"/>
<path d="M626.258 147.758L626.183 178.063C626.183 178.063 593.54 177.954 576.944 177.954C571.423 177.954 567.678 177.967 567.5 177.999C564.64 178.52 562.819 184.601 563.63 187.27C564.029 188.62 567.021 193.03 570.26 197.08C573.489 201.131 578.8 207.761 582.04 211.809C590.359 222.19 591.5 224.239 592.269 230.2C593.519 239.881 588.94 250.36 580.44 257.27C571.922 264.2 572.295 264.249 509.057 264.249C508.141 264.249 507.222 264.249 506.28 264.249C467.82 264.239 447.48 263.92 444.519 263.26C439.259 262.07 430.879 255.23 408.729 233.98C400.762 226.344 393.42 219.658 393.043 219.656C393.033 219.656 393.028 219.662 393.028 219.672L392.767 264.251L356.868 264.092L356.647 149.112H401.918H436.708C460.838 149.983 477.168 174.022 473.918 189.352C473.178 192.831 471.298 197.873 469.737 200.552C466.527 206.052 458.357 213.112 451.726 216.143C449.277 217.251 447.277 218.541 447.277 219.001C447.277 220.711 455.338 228.65 458.357 229.911C460.936 230.99 468.447 231.23 501.567 231.23C505.449 231.23 508.975 231.232 512.175 231.232C545.468 231.232 543.793 230.992 546.365 225.491C548.166 221.661 546.796 219.371 534.126 205.101C518.075 189.13 519.756 181.48 519.646 175.83C519.417 169.06 524.748 147.761 552.458 147.761L626.258 147.758ZM411.188 200.878C426.558 200.878 429.678 200.639 432.949 199.218C443.989 194.418 444.579 180.239 433.989 173.947C431.67 172.566 428.689 172.338 412.029 172.247L392.75 172.146C392.909 172.296 392.689 199.716 392.689 199.716C392.689 199.716 397.518 200.878 411.188 200.878ZM634.277 139.758H626.256H552.456C536.424 139.758 526.941 146.086 521.81 151.395C513.463 160.028 511.497 170.899 511.648 176.024C511.656 176.451 511.651 176.889 511.646 177.346C511.573 185.675 512.8 195.104 528.305 210.592C531.37 214.044 536.498 219.831 538.436 222.707C534.198 223.228 523.456 223.228 512.174 223.228H507.382L501.566 223.226C481.662 223.226 464.878 223.169 461.438 222.49C460.957 222.176 460.282 221.636 459.54 220.992C466.417 216.757 473.37 210.193 476.644 204.58C478.631 201.167 480.822 195.337 481.742 191.012C483.782 181.387 480.417 169.776 472.741 159.944C463.785 148.473 450.756 141.61 436.995 141.114L436.85 141.108H436.705H401.915H356.644H348.628L348.644 149.125L348.865 264.104L348.881 272.053L356.83 272.088L392.729 272.247L400.717 272.282L400.764 264.294L400.919 237.588C401.652 238.284 402.41 239.007 403.188 239.753C427.415 262.993 435.547 269.432 442.75 271.061C444.729 271.502 448.003 272.233 506.273 272.249H509.052C540.598 272.249 556.432 272.249 565.851 271.339C576.64 270.296 580.11 267.849 585.312 263.614L585.485 263.473C596.17 254.786 601.808 241.643 600.2 229.173C599.152 221.063 597.006 217.694 588.278 206.805L585.684 203.565C582.644 199.766 578.971 195.178 576.509 192.09C574.523 189.606 572.963 187.401 572.022 185.957C573.258 185.954 574.863 185.952 576.94 185.952C593.335 185.952 625.827 186.06 626.153 186.062L634.161 186.088L634.181 178.08L634.256 147.774L634.277 139.758ZM400.739 192.586C400.752 190.565 400.764 188.299 400.777 186.029C400.787 184.029 400.796 182.025 400.799 180.189L411.986 180.247C418.415 180.282 428.089 180.335 429.975 180.87C432.382 182.331 433.725 184.59 433.579 186.93C433.499 188.194 432.897 190.518 429.758 191.881C428.008 192.641 425.218 192.878 411.188 192.878C406.738 192.878 403.305 192.749 400.739 192.586Z" fill="#FFE81F"/>
<path d="M283.908 147.287L324.198 263.207L291.368 263.357L285.918 245.947L227.218 245.476L222.038 262.907L189.538 262.566L229.318 147.337L283.908 147.287ZM257.507 164.283C257.424 164.616 252.363 178.502 247.285 192.387C242.165 206.387 237.028 220.387 236.957 220.496C236.957 220.497 236.956 220.497 236.957 220.497C236.957 220.497 236.957 220.497 236.957 220.496C237.093 220.456 255.273 220.416 266.925 220.416C272.378 220.416 276.4 220.425 276.475 220.445C276.476 220.449 276.477 220.45 276.477 220.45C276.477 220.45 276.477 220.449 276.477 220.447C276.477 220.447 276.476 220.447 276.475 220.445C276.271 219.916 257.566 164.959 257.507 164.283C257.508 164.279 257.508 164.277 257.508 164.277C257.507 164.277 257.507 164.279 257.507 164.283ZM289.595 139.282L283.902 139.287L229.312 139.338L223.616 139.343L221.757 144.729L181.977 259.958L178.354 270.452L189.456 270.567L221.956 270.908L227.99 270.971L229.708 265.189L233.174 253.527L280.029 253.902L283.736 265.75L285.501 271.388L291.408 271.362L324.237 271.212L335.432 271.16L331.757 260.586L291.466 144.666L289.595 139.282ZM248.472 212.424C249.987 208.295 252.028 202.714 254.799 195.135C255.668 192.759 256.463 190.584 257.192 188.59C257.855 190.546 258.577 192.674 259.361 194.988C260.007 196.894 262.846 205.258 265.281 212.416C258.041 212.416 252.591 212.417 248.472 212.424Z" fill="#FFE81F"/>
<path d="M297.488 8.92802V37.528H240.208V124.998H206.058V37.458L139.198 37.648C131.138 37.648 130.058 44.068 130.058 46.528C130.058 49.548 132.028 52.568 142.848 66.268C149.868 75.168 156.318 84.048 157.168 85.988C161.808 96.668 155.808 113.308 144.878 120.068C137.088 124.881 138.419 124.999 80.5702 124.999C77.5962 124.999 74.4742 124.999 71.1782 124.999H8.9082V92.869H106.808L109.698 90.859C111.648 89.499 112.778 87.629 113.208 85.069C113.808 81.389 113.498 80.909 101.408 67.289C87.1182 51.189 85.6082 48.249 86.3482 37.969C87.1882 26.239 97.6482 9.19901 115.928 9.19901L297.488 8.92802ZM305.488 0.916016L297.475 0.928017L115.915 1.19801C105.457 1.19801 95.7442 5.71601 88.5732 13.92C82.7592 20.572 78.9432 29.349 78.3672 37.397C77.3942 50.908 80.5042 55.79 95.4232 72.599C99.7532 77.476 103.87 82.115 105.244 84.085C105.222 84.164 105.202 84.215 105.19 84.244C105.175 84.256 105.152 84.274 105.12 84.296L104.298 84.868H8.9082H0.908203V92.868V124.998V132.998H8.9082H71.1782H76.1152H80.5702C109.092 132.998 123.17 132.971 131.464 132.363C140.954 131.668 143.982 130.04 148.518 127.223L149.084 126.872C163.346 118.051 170.696 97.045 164.506 82.798C162.596 78.44 150.503 63.052 149.13 61.312C145.334 56.505 139.068 48.572 138.076 46.276C138.1 46.083 138.147 45.883 138.197 45.744C138.362 45.702 138.678 45.646 139.198 45.646L198.058 45.479V124.996V132.996H206.058H240.208H248.208V124.996V45.526H297.488H305.488V37.526V8.92602V0.916016Z" fill="#FFE81F"/>
<path d="M390.548 9.85699L430.728 126.077L397.958 125.897L392.638 108.487L334.199 108.227L328.978 124.997H295.609L335.348 9.85699H390.548ZM343.737 83.478L383.538 83.428C383.539 83.428 383.539 83.429 383.539 83.429C383.675 83.429 364.197 26.228 364.067 26.188C363.925 26.183 343.288 83.478 343.737 83.478ZM396.247 1.85699H390.548H335.348H329.647L327.787 7.24699L288.047 122.388L284.385 132.998H295.61H328.98H334.869L336.619 127.375L340.08 116.254L386.712 116.461L390.311 128.235L392.032 133.864L397.919 133.897L430.689 134.077L441.986 134.139L438.295 123.463L398.115 7.24299L396.247 1.85699ZM354.851 75.464C357.319 68.437 360.755 58.807 363.865 50.152C366.813 58.796 370.074 68.397 372.453 75.442L354.851 75.464Z" fill="#FFE81F"/>
<path d="M503.397 9.85699C529.318 9.85699 547.307 10.227 550.767 10.827C558.767 12.217 565.997 16.487 571.417 23.047C577.087 29.907 578.387 33.187 579.127 42.587C580.188 55.857 573.877 67.307 561.427 74.737C557.797 76.907 554.068 79.017 553.137 79.437C551.707 80.087 551.898 80.707 554.457 83.707C556.106 85.637 558.967 88.387 560.807 89.817L564.167 92.427L626.247 93.317L626.856 124.997H588.795C559.356 124.997 549.935 124.727 547.175 123.797C543.045 122.397 533.106 113.977 512.904 94.757L498.484 81.037L498.636 124.997H461.593V9.85699H503.397ZM497.939 61.627H517.61C536.751 61.627 537.349 61.567 540.08 59.517C544.961 55.857 546.689 52.087 546.171 46.297C545.641 40.327 543.341 37.217 537.57 34.717C534.32 33.297 531.189 33.067 515.849 33.067H497.939V61.627ZM503.397 1.85699H461.597H453.597V9.85699V124.997V132.997H461.597H498.64H506.668L506.64 124.969L506.552 99.753L507.392 100.552C532.378 124.325 539.748 129.725 544.61 131.373C548.343 132.632 554.592 132.997 588.798 132.997H626.859H635.013L634.857 124.843L634.248 93.163L634.1 85.429L626.366 85.318L566.964 84.467L565.719 83.5C565.323 83.191 564.843 82.783 564.33 82.321C564.776 82.057 565.184 81.814 565.537 81.604C580.54 72.651 588.403 58.197 587.106 41.951C586.243 30.992 584.286 26.055 577.586 17.951C571.002 9.98199 561.965 4.65299 552.139 2.94599C546.679 1.99899 519.258 1.85699 503.397 1.85699ZM505.939 41.067H515.849C529.876 41.067 532.655 41.3 534.367 42.048C537.617 43.456 537.947 44.139 538.202 47.005C538.458 49.853 538.105 50.999 535.28 53.117C535.187 53.186 535.116 53.24 535.057 53.283C533.192 53.628 526.271 53.628 517.61 53.628H505.94L505.939 41.067Z" fill="#FFE81F"/>
</svg>
